<?xml version="1.0" encoding="utf-8"?>
<!-- Generator: Adobe Illustrator 18.0.0, SVG Export Plug-In . SVG Version: 6.00 Build 0)  -->
<!DOCTYPE svg PUBLIC "-//W3C//DTD SVG 1.1//EN" "http://www.w3.org/Graphics/SVG/1.1/DTD/svg11.dtd">
<svg version="1.1" id="圖層_1" xmlns="http://www.w3.org/2000/svg" xmlns:xlink="http://www.w3.org/1999/xlink" x="0px" y="0px"
	 viewBox="0 0 1417.3 841.9" enable-background="new 0 0 1417.3 841.9" xml:space="preserve">
<g>
	<path fill="#333333" d="M58.6,167.4c5.1-6.6,11.4-10.8,19.7-12.8c8.1-2.2,15.6-1.7,23.3,1.4c7.7,3.2,13.4,8.3,17.5,15.6
		c3.1,5.5,8,9.2,13.8,10.8c5.9,1.6,12.1,0.8,17.6-2.4c11.9-7,15.3-19.8,8.4-31.5c-9.1-16.2-22.4-28-39.6-35.1
		c-17.1-7.1-35.5-8-52.9-3c-18.1,4.7-33,14.5-44.2,29.1c-11.3,14.5-17,31.5-17,50.3v168.8c0,19,5.7,35.8,16.9,50.4
		c11.2,14.5,26,24.4,44.2,29.6c7.2,1.9,14.4,2.9,21.5,2.9c10.7,0,21.3-2.2,31.5-6.4c17.1-7.1,30.5-18.8,39.5-34.9
		c4.4-7.4,4-13.7,3-17.7c-1.1-4-3.8-9.7-11.4-14.2c-5.4-3-11.4-3.8-17.3-2.3c-5.9,1.6-10.8,5.4-13.9,10.8
		c-4.1,7.3-9.9,12.4-17.5,15.5c-7.7,3.2-14.8,3.8-23.7,1.4c-8-1.9-14.3-6.1-19.4-12.6c-5.1-6.6-7.6-14-7.6-22.6V189.8
		C50.9,181.5,53.4,174.1,58.6,167.4z"/>
	<path fill="#333333" d="M378.8,249.9c-7.9-11.7-18.6-20.5-31.9-26.2c-13.1-5.7-27-7.2-41-4.3c-14,2.8-26.2,9.4-36.5,19.6
		c-4.1,4.2-6.3,9.7-6.3,15.9c0,5.9,2.2,11.3,5.6,14.5c8.6,10.4,25.6,8.9,32.2,0.9c3.7-3.8,8-6,13.2-7c5.2-1.1,10.6-0.5,15.2,1.3
		c5.3,2.3,9.3,5.6,12.3,10.1c3,4.4,4.4,9.1,4.4,14.3v5.4h-27.3c-9.8,0-19.2,2-28.1,5.9c-8.6,3.8-16.2,9.1-22.6,15.4
		c-6.4,6.4-11.6,14-15.4,22.7c-3.9,8.8-5.9,18.2-5.9,28c0,9.8,2,19.3,5.9,28c3.8,8.7,9,16.3,15.4,22.6c6.5,6.5,14.1,11.7,22.7,15.4
		c8.8,4,18.2,5.9,28,5.9h49.6c6.3,0,11.8-2.2,16-6.4c4.2-4.2,6.4-9.7,6.4-15.9V289.1C390.7,275,386.7,261.8,378.8,249.9z M346,393.9
		h-27.3c-8,0-14.2-2.5-19.4-7.9c-5.4-5.5-7.9-11.7-7.9-19.4c0-7.8,2.5-14,7.8-19.4c5.3-5.4,11.5-7.9,19.5-7.9H346V393.9z"/>
	<path fill="#333333" d="M1171.6,239.3c-6.5-6.4-14.1-11.6-22.7-15.4c-8.8-3.9-18.2-5.9-28-5.9h-27.3v-88.5c0-6.2-2.3-11.7-6.4-15.9
		c-8.4-8.3-23.5-8.3-31.9,0c-4.2,4.2-6.4,9.7-6.4,15.9v288.8c0,6.2,2.2,11.6,6.3,15.8c8.3,8.4,23.7,8.4,32,0
		c4.1-4.2,6.4-9.7,6.4-15.8V262.7h27.3c7.7,0,13.9,2.6,19.3,8c5.5,5.4,8,11.6,8,19.3v128.2c0,6.2,2.2,11.6,6.3,15.8
		c4.2,4.3,9.7,6.4,16,6.4c6.3,0,11.8-2.2,15.9-6.4c4.2-4.2,6.4-9.7,6.4-15.9V290c0-9.7-2-19.1-5.9-28
		C1183.2,253.4,1178,245.7,1171.6,239.3z"/>
	<path fill="#333333" d="M1406.2,262c-3.8-8.6-9-16.2-15.5-22.7c-6.4-6.4-14-11.6-22.7-15.5c-17.5-7.7-38.4-7.8-56,0
		c-8.6,3.9-16.2,9-22.7,15.5c-6.4,6.5-11.6,14.2-15.4,22.7c-3.9,8.8-5.8,18.2-5.8,28v78.5c0,9.8,1.9,19.2,5.9,28.1
		c3.8,8.6,9,16.3,15.4,22.5c6.4,6.5,14.1,11.7,22.7,15.5c8.8,3.9,18.2,5.9,28,5.9c9.8,0,19.2-2,27.9-5.9c8.7-3.8,16.4-8.9,22.7-15.4
		c6.4-6.3,11.6-14,15.5-22.7c3.9-8.8,5.8-18.2,5.8-28V290C1412.1,280.2,1410.1,270.8,1406.2,262z M1367.4,368.5c0,7.8-2.6,14-8,19.3
		c-5.4,5.5-11.6,8-19.3,8c-7.8,0-13.9-2.5-19.3-8c-5.4-5.4-8-11.6-8-19.3V290c0-7.8,2.6-13.9,8-19.3c5.5-5.5,11.6-8,19.3-8
		c7.7,0,13.8,2.5,19.3,8c5.5,5.5,8,11.6,8,19.4V368.5z"/>
	<path fill="#333333" d="M970.6,230.7c-10.4-5.2-23.1-0.9-28.2,9.6l-45.8,109.1l-31.6-103.8c0,0-5.7-17.2-23.6-17.2
		c-15.6,0-23.5,17.2-23.5,17.2l-30.4,100.1l-44.3-105.4c-5.1-10.5-17.8-14.8-28.3-9.6c-10.5,5.2-14.7,17.8-9.6,28.3l64.5,153.5
		c1.4,5.9,5.2,11.3,11.2,14.2c2.1,1.1,4.3,1.6,6.5,1.9c0.2,0,0.5,0,0.7,0c0.8,0.1,1.6,0.2,2.4,0.2c0.8,0,1.6,0,2.4-0.2
		c0.2,0,0.4,0,0.6,0c2.2-0.3,4.4-0.8,6.5-1.9c7.5-3.8,11.8-11.4,11.7-19.3l29.7-114.3l32.3,124.1c3.8,7.6,11.7,12,19.8,11.6
		c0.1,0,0.1,0,0.2,0c0.1,0,0.2,0,0.3,0c8.1,0.3,16-4,19.8-11.6L980.1,259C985.3,248.5,981,235.8,970.6,230.7z"/>
	<path fill="#333333" d="M617.1,218c-11.7,0-21.1,9.5-21.1,21.2v107.5l-76-116.9c-0.2-0.4-0.5-0.8-0.8-1.1c-0.3-0.6-0.7-1.3-1.1-1.8
		c-0.4-0.6-0.9-1.1-1.3-1.7c-0.4-0.4-0.8-1-1.3-1.4c-0.5-0.5-1.1-0.9-1.7-1.3c-0.5-0.4-1-0.8-1.6-1.1c-0.5-0.3-1.2-0.7-1.8-1
		c-0.6-0.3-1.2-0.6-1.8-0.8c-0.7-0.3-1.3-0.5-2-0.6c-0.7-0.2-1.3-0.3-1.9-0.5c-0.8,0-1.5-0.2-2.3-0.2c-0.4,0-0.8-0.1-1.3-0.1
		c-0.2,0-0.4,0.1-0.5,0.1c-0.8,0-1.5,0.1-2.3,0.2c-0.7,0.1-1.3,0.2-2,0.3c-0.6,0.1-1.2,0.3-1.7,0.5c-0.8,0.3-1.5,0.5-2.3,0.8
		c-0.2,0.1-0.3,0.2-0.5,0.3c-0.4,0.2-0.7,0.4-1,0.6c-0.7,0.4-1.4,0.8-2.1,1.3c-0.5,0.3-1,0.7-1.4,1.2c-0.5,0.5-1.1,0.9-1.6,1.5
		c-0.4,0.5-0.8,1-1.2,1.5c-0.4,0.6-0.8,1.1-1.2,1.8c-0.3,0.5-0.6,1.1-0.9,1.7c-0.3,0.6-0.6,1.3-0.9,2c-0.3,0.5-0.4,1.1-0.6,1.8
		c-0.2,0.7-0.4,1.3-0.5,2.1c-0.1,0.7-0.2,1.4-0.2,2.1c0,0.5-0.1,1-0.1,1.5v178.3c0,11.7,9.4,21.1,21.1,21.1
		c11.7,0,21.1-9.4,21.1-21.1V310l76,116.9c0.2,0.4,0.5,0.7,0.7,1.1c0.4,0.6,0.8,1.3,1.2,1.9c0.4,0.6,0.8,1.1,1.3,1.6
		c0.5,0.5,0.9,1.1,1.4,1.5c0.5,0.5,1,0.8,1.5,1.3c0.5,0.4,1.1,0.8,1.7,1.2c0.5,0.3,1.1,0.5,1.7,0.8c0.6,0.3,1.3,0.7,2,0.9
		c0.6,0.2,1.1,0.4,1.7,0.5c0.7,0.3,1.4,0.4,2.2,0.5c0.6,0.1,1.3,0.1,1.9,0.1c0.5,0.1,1,0.2,1.5,0.2c0.3,0,0.5,0,0.7-0.1
		c0.6,0,1.2-0.1,1.9-0.1c0.8-0.1,1.6-0.2,2.4-0.4c0.5-0.1,0.9-0.3,1.4-0.4c0.9-0.3,1.8-0.6,2.6-1c0.2,0,0.3,0,0.4-0.2
		c0.3-0.1,0.5-0.3,0.8-0.5c0.8-0.5,1.6-0.9,2.3-1.4c0.5-0.3,0.9-0.7,1.3-1.1c0.6-0.5,1.2-1.1,1.7-1.6c0.4-0.4,0.8-0.9,1.2-1.4
		c0.5-0.6,0.9-1.2,1.3-1.8c0.3-0.6,0.6-1.1,0.9-1.6c0.3-0.6,0.6-1.3,0.9-2c0.2-0.6,0.4-1.2,0.6-1.8c0.2-0.7,0.4-1.3,0.5-2.1
		c0.1-0.7,0.2-1.4,0.2-2.1c0-0.5,0.1-0.9,0.1-1.3V239.2C638.2,227.5,628.8,218,617.1,218z"/>
	<path fill="#93C399" d="M517.2,150.2l30.9-1.1c2.5-0.3,4,1,4,1s0.8,0.4,0.9,2.8l-1,35.6c0.8,5.6,4.5,0.5,4.5,0.5l39.3-77
		c4.2-9.2-5.1-5.3-5.1-5.3L513,145.7C513,145.7,508.1,149.4,517.2,150.2z"/>
	<g>
		<g>
			<path fill="#333333" d="M140.5,600.7c-1.3,0-2.5,0.3-3.8,1c-1.5,0.7-2.4,1.7-2.8,3.3c-0.1,0.4-0.1,0.9-0.1,1.3c0,1.1,0.3,2,1,2.9
				c2.4,3.6,4.7,7.4,6.8,11.4c0.9,1.9,2.2,3.2,4,3.8c1.8,0.8,3.6,0.6,5.2-0.1c1.9-0.9,3.2-2.3,3.9-4.3c0.4-0.8,0.5-1.6,0.5-2.3
				c0-1.1-0.3-2.1-0.9-3.2c-1.9-3.5-4.2-7.1-7.1-10.7c-1.2-1.6-2.8-2.6-4.8-2.9C141.7,600.9,141.1,600.7,140.5,600.7z"/>
		</g>
		<g>
			<path fill="#333333" d="M26.8,612.6c-2,0-3.7,0.7-5,2.1c-1.4,1.4-2,3.1-2,5.1c0,2,0.7,3.6,2,5.1c1.3,1.3,3,2,5,2h57.8
				c2.1,0,3.7-0.6,5.1-2c1.5-1.4,2.1-3.1,2.1-5.1c0-2-0.7-3.7-2.1-5.1c-1.4-1.4-3.1-2.1-5.1-2.1H66.2c-1.4,0-2.3-0.8-2.3-2.2v-7.3
				c0-2.2-0.7-4-2.2-5.5c-1.5-1.5-3.2-2.2-5.4-2.2h-0.9c-2.1,0-3.9,0.7-5.4,2.2c-1.5,1.5-2.3,3.2-2.3,5.4v7.3c0,1.3-0.8,2.2-2.2,2.2
				H26.8z"/>
		</g>
		<g>
			<path fill="#333333" d="M33.3,687.9c-1.3,0-2.6,0.5-3.8,1.3c-1.9,1.1-2.9,2.5-3.5,4.6c-1.8,6.7-3.8,12.3-6.3,17.4
				c-0.6,1.1-0.9,2.4-0.9,3.8c0,0.7,0.1,1.2,0.2,1.7c0.5,2.2,1.5,3.8,3.1,5c1.3,1,2.6,1.5,3.9,1.5c0.3,0,0.6-0.1,0.9-0.1l0.3,0
				c1.9-0.3,3.2-1.2,4.1-2.9c3.5-6.7,6.4-14.6,8.9-23.6c0.2-0.5,0.3-1.1,0.3-1.8c0-1.3-0.4-2.5-1-3.6c-1-1.6-2.5-2.6-4.5-2.9
				C34.3,688,33.8,687.9,33.3,687.9z"/>
		</g>
		<g>
			<path fill="#333333" d="M89.3,703c0,0-2-5.6-4.7-11.9c-0.7-1.6-1.9-2.8-3.6-3.6c-1-0.3-1.9-0.5-2.8-0.5c-0.7,0-1.4,0.1-2.4,0.4
				c-1.6,0.6-2.8,1.6-3.4,3.1c-0.4,0.8-0.5,1.6-0.5,2.5c0,0.7,0.1,1.5,0.4,2.4c1.4,3.7,2.7,7.4,4,11.3c0.5,1.9,1.7,3.3,3.5,4.3
				c1.9,0.8,3.3,1,5.6,0.3l2.6-0.9C91.2,707.7,89.3,703,89.3,703z M92,711.9c0,0-4.7,6.5-7.2,9.3c-1.1,1.2-1.6,2.5-1.6,4
				c0,0.2,0,0.5,0.1,0.8c0.3,2,1.1,3.4,2.7,4.4c0.3,0.2,0.6,0.4,1.1,0.7c1.6,1.2,3.5,1.8,5.5,1.8h0.6c2.2-0.2,3.9-1,5.2-2.6
				c9.8-11.5,17-26.1,21.3-43.6l0.2-0.9h0.9c0.9,0,1.5,0.5,1.5,1.3v29.1c0,4.7,0.2,8.1,0.7,10c0.5,1.8,1.3,3.4,2.5,4.6
				c2.3,2.4,5.6,3.7,10.1,3.7h9c3.6,0,6.5-0.8,8.5-2.5c2.5-1.8,4.1-4.3,4.8-7.6c1.1-3.7,1.6-8.3,1.6-13.7c0-1.7-0.5-3.3-1.4-4.7
				c-1.1-1.8-2.5-3.1-4.4-4.1c-1-0.5-2-0.6-3,0c-1,0.5-1.5,1.2-1.6,2.3c0,4.4-0.1,7.6-0.5,9.9c-0.1,1.7-0.6,3.2-1.6,4.1
				c-0.6,0.8-1.8,1.3-3.4,1.3h-3c-1.3,0-2.4-0.5-3.2-1.4c-0.6-0.6-0.9-1.6-0.9-3v-50.5c0-2.1-0.8-3.9-2.3-5.4
				c-1.6-1.5-3.3-2.3-5.4-2.3h-2.1c-1.4,0-2.2-0.8-2.2-2.2l0.3-4.3c0.2-1.4,1.1-2.2,2.4-2.2h23c2.1,0,3.9-0.7,5.3-2.2
				c1.5-1.5,2.2-3.2,2.2-5.4c0-2-0.7-3.7-2.1-5.1c-1.5-1.5-3.3-2.2-5.4-2.2h-22.6c-1.5,0-2.4-0.9-2.4-2.3v-27.9
				c0-2.1-0.7-3.9-2.2-5.4c-1.5-1.5-3.3-2.2-5.4-2.2c-2.1,0-3.9,0.7-5.4,2.2c-1.5,1.5-2.2,3.2-2.2,5.4v27.9c0,1.4-0.8,2.3-2.2,2.3
				h-7.6c-2.1,0-3.8,0.7-5.2,2.1c-1.5,1.5-2.1,3.2-2.1,5.2c0,2.1,0.7,3.9,2.1,5.4c1.4,1.5,3.1,2.2,5.2,2.2h7.2
				c1.3,0,2.2,0.9,2.2,2.4c-1.5,23.6-6.8,43.3-15.8,58.4C93.8,708.9,93.3,710.1,92,711.9z"/>
		</g>
		<g>
			<path fill="#333333" d="M357.1,716.5c0.4,0,1.1,0.2,1.7,0.9c4.7,5.4,10,9.1,16.4,11.5c6.2,2.4,13.9,3.8,23.5,4.2
				c8.9,0.3,17.4,0.4,25.8,0.4c10.8,0,21.7-0.2,32.6-0.6c2.3,0,4.4-0.8,6.2-2.3c1.9-1.5,3.1-3.4,3.8-5.8c0.1-0.4,0.3-1,0.4-1.5
				c0.2-0.6,0.3-1.1,0.3-1.6c0-0.9-0.3-1.9-1-2.8c-0.9-1.3-2-1.9-3.6-1.9h-0.4c-13.5,0.8-27.2,1.2-40.5,1.2c-7.2,0-15.6,0-23.4-0.4
				c-16.6-0.6-28-5.5-33.9-14.6c-0.5-0.8-0.8-1.7-0.8-2.7v-38.1c0-2.1-0.7-3.8-2.3-5.4c-1.6-1.5-3.3-2.3-5.4-2.3h-18.2
				c-2,0-3.7,0.7-5.1,2.1c-1.5,1.5-2.1,3.2-2.1,5.1c0,2,0.7,3.6,2.1,5.1c1.4,1.4,3.1,2.1,5.1,2.1h8.1c1.5,0,2.4,0.8,2.4,2.2v30.1
				c0,1.1-0.5,2.1-1.4,2.8c-3.6,2.8-7.8,5.7-12.6,8.8c-1.9,1.3-3.2,2.9-3.9,5.1c-0.3,0.8-0.4,1.6-0.4,2.5c0,1.2,0.3,2.3,0.9,3.4
				l1.4,3.1c0.8,1.8,2.1,2.8,4,3.2c0.5,0.2,0.9,0.3,1.4,0.3c1.2,0,2.4-0.4,3.4-1.4c3.8-3.1,8.6-7.1,14.2-12.1
				C356.2,716.6,356.7,716.5,357.1,716.5z"/>
		</g>
		<g>
			<path fill="#333333" d="M83.1,640c-1.6-1.6-3.3-2.4-5.4-2.4H34.4c-2.1,0-3.9,0.8-5.4,2.4c-1.5,1.5-2.3,3.3-2.3,5.4v25.4
				c0,2.1,0.7,3.9,2.3,5.5c1.5,1.5,3.3,2.2,5.4,2.2h12.4c1.4,0,2.4,0.9,2.4,2.4v37.5c0,0.8-0.1,1.8-0.9,2.5
				c-0.7,0.6-1.8,0.7-2.8,0.7h-3.7c-1.6,0-2.8,0.7-3.6,2c-0.6,0.9-0.9,1.8-0.9,2.7c0,0.5,0.1,1.1,0.3,1.7c0.8,2.3,2,4.1,3.8,5.5
				c1.6,1.3,3.4,1.9,5.3,1.9h0.6c5-0.3,8.6-1.2,11.1-2.6c2.2-1.2,3.8-2.9,4.7-5c0.9-2.1,1.3-5.1,1.3-9.1v-38c0-1.4,0.9-2.4,2.3-2.4
				h11.2c2.1,0,3.9-0.7,5.4-2.2c1.5-1.5,2.3-3.3,2.3-5.4v-25.4C85.4,643.3,84.6,641.5,83.1,640z M70.1,663.4c0,1.4-0.9,2.4-2.3,2.4
				H43.2c-1.3,0-2.2-0.9-2.2-2.4v-10.9c0-1.3,0.9-2.2,2.2-2.2h24.5c1.5,0,2.3,0.8,2.3,2.2V663.4z"/>
		</g>
		<g>
			<path fill="#333333" d="M343.5,601.8c-2.3,0.1-4.3,0.8-6.2,2.3c-1.4,1.1-2.1,2.6-2.1,4.4c0,2,0.7,3.5,2.2,4.6
				c4.6,3.9,8.7,7.8,12.6,11.9c1.4,1.6,3.2,2.6,5.1,2.8c0.4,0.1,0.7,0.1,0.9,0.1c1.6,0,3.1-0.5,4.6-1.6l0.8-0.8
				c1.6-1.4,2.5-3.2,2.7-5.3l0.1-0.4c0,0,0-0.1,0-0.3c0-1.8-0.6-3.4-1.9-4.8c-3.5-3.5-7.8-7.2-12.7-11c-1.7-1.4-3.7-2-5.9-2H343.5z"
				/>
		</g>
		<g>
			<path fill="#333333" d="M1273,626.3h-0.6c-1.1,0-2.1,0.4-3,1.1c-1.1,0.9-1.7,2.1-1.8,3.5c-0.6,10.7-2.1,19.9-4.4,27.2
				c-0.3,0.8-0.4,1.5-0.4,2.2c0,0.8,0.2,1.6,0.5,2.3c0.7,1.6,1.6,2.7,3,3.3c1.2,0.6,2.5,0.8,4.5,0.1c1.4-0.6,2.4-1.7,2.9-3.1
				c3.1-9.7,4.7-20,4.7-30.6c0-1.5-0.5-2.7-1.5-3.9C1275.8,627.2,1274.6,626.5,1273,626.3z"/>
		</g>
		<g>
			<path fill="#333333" d="M1291.2,595.4c-2.2,0-4,0.7-5.5,2.2c-1.6,1.5-2.3,3.3-2.3,5.5v125.1c0,2.2,0.8,4,2.3,5.5
				c1.5,1.5,3.2,2.2,5.4,2.2h0.1c2.1,0,3.9-0.7,5.4-2.2c1.5-1.4,2.3-3.2,2.3-5.5v-97.3c0-1.4,1.7-1.9,2.5-0.9c3,6.5,5.3,12.5,6.8,18
				c0.3,1.3,1.1,2.1,2.3,2.7c1.3,0.5,2.3,0.5,3.5,0c1.5-0.7,2.5-1.8,3.2-3.3c0.4-0.8,0.7-1.7,0.7-2.5c0-0.5-0.1-1.2-0.3-1.9
				c0-0.2-0.1-0.3-0.2-0.5c-0.4-1.1-0.1-1.6,0.1-2c0.3-0.3,0.7-0.7,1.5-0.7h7.2c1.3,0,2.2,0.9,2.2,2.4v60.8
				c0,10.5,1.9,17.7,5.7,21.5c3.8,4,10.8,5.9,20.8,5.9h28.3c3.4,0,6.6-0.1,9.5-0.2c2-0.1,3.7-1.1,5-2.7c1-1.4,1.5-3.1,1.5-5v-1.1
				c-0.1-1.9-1.1-3.5-2.7-4.6c-1.5-1.1-3.1-1.7-4.8-1.7h-0.8c-2.1,0.2-4.4,0.3-7.3,0.3H1354c-3.7,0-6.2-0.9-7.6-2.8
				c-1.3-1.7-1.9-4.7-1.9-8.9v-61.6c0-1.4,0.9-2.4,2.3-2.4h48.4c2.1,0,3.9-0.7,5.3-2.1c1.5-1.5,2.2-3.2,2.2-5.4
				c0-2.1-0.8-3.8-2.2-5.3c-1.5-1.5-3.2-2.2-5.3-2.2H1369c-1.3,0-2.2-0.9-2.2-2.2v-19.6c0-2.2-0.7-4-2.3-5.4
				c-1.6-1.5-3.3-2.2-5.4-2.2h-0.5c-2.2,0-4,0.7-5.5,2.2c-1.5,1.5-2.2,3.2-2.2,5.5v19.6c0,1.3-0.9,2.2-2.4,2.2h-24.7
				c-2,0-3.8,0.7-5.4,2.2c-1.5,1.5-2.2,3.2-2.2,5.3c0,1.2-0.8,1.5-1.3,1.5c-0.6,0-1-0.4-1.1-0.5l-0.3-0.4c-0.7-1.8-1.4-3.5-2.2-5.1
				c-0.8-1.8-2.2-3-4.3-3.8c-2.1-0.7-3.8-0.6-5.7,0.3l-0.5,0.1c-0.4,0-0.8-0.1-1.1-0.3c-0.4-0.2-0.9-0.6-0.9-1.6v-19.5
				c0-2.2-0.8-4-2.3-5.4C1295.1,596.1,1293.3,595.4,1291.2,595.4z"/>
		</g>
		<g>
			<g>
				<path fill="#333333" d="M767.8,704.3c-1.5-1.6-3.2-2.3-5.4-2.3H720c-1.4,0-2.3-0.9-2.3-2.2v-2.7c0-1.3,0.9-2.2,2.3-2.2h33.8
					c2.1,0,3.9-0.8,5.5-2.3c1.5-1.5,2.2-3.3,2.2-5.4v-19.7c0-2.2-0.7-4-2.2-5.5c-1.5-1.4-3.3-2.1-5.5-2.1h-34.4
					c-0.6,0-1.1-0.3-1.5-0.9c-0.3-0.4-0.3-1.1,0-1.6c0.5-0.8,0.7-1.4,0.7-2.2c0-0.5-0.1-1.1-0.4-1.6c-0.5-1.3-1.5-2-2.9-2.3
					l-2.9-0.6c-1.2-0.2-1.9-1.1-1.9-2.4c0-1.6-0.5-2.9-1.6-4c-1.1-1-2.4-1.5-3.8-1.5h-0.5c-15.6,0.9-17.6,1.1-17.9,1.2
					c0,0,0,0-0.1,0c-1.6,0-2.5-0.8-2.5-2.1v-2.4c0-1.1,0.7-2.1,2.4-2.1h16.3c1,0,1.8-0.4,2.5-1.1c0.7-0.7,1-1.5,1-2.5
					s-0.3-1.7-1-2.5c-0.7-0.7-1.4-1-2.5-1h-16.3c-1.5,0-2.4-0.9-2.4-2.2v-2.2c0-1.4,0.9-2.4,2.4-2.4h19.4c0.9,0,1.6-0.3,2.4-1
					c0.7-0.6,1-1.3,1-2.3c0-0.9-0.3-1.8-1-2.4c-0.7-0.7-1.5-1-2.3-1h-19.4c-1.4,0-2.4-0.8-2.4-2.2V612c0-1.5,0.9-2.3,2.4-2.3h15.1
					c0.9,0,1.6-0.3,2.3-1c0.6-0.6,0.9-1.3,0.9-2.2c0-0.9-0.3-1.6-0.9-2.3c-0.6-0.6-1.3-0.9-2.3-0.9h-15.4c-1.2,0-2-0.8-2-2
					c0-1.6-0.5-2.9-1.7-4c-1.1-1.1-2.5-1.7-4.1-1.7h-3c-1.6,0-2.9,0.6-4.1,1.7c-1.2,1.1-1.8,2.4-1.8,4c0,1.4-0.9,2-1.9,2h-14.5
					c-1,0-1.8,0.3-2.4,0.9c-0.6,0.6-0.9,1.3-0.9,2.3c0,0.9,0.3,1.6,0.9,2.3c0.7,0.6,1.5,0.9,2.4,0.9h14.2c1.3,0,2.2,0.9,2.2,2.3v2.5
					c0,1.3-0.8,2.2-2.2,2.2h-19.9c-1,0-1.8,0.3-2.4,1c-0.7,0.6-1,1.5-1,2.4c0,1,0.3,1.7,1,2.3c0.7,0.7,1.5,1,2.5,1h19.9
					c1.3,0,2.2,0.9,2.2,2.4v2.2c0,1.3-0.8,2.2-2.2,2.2h-16.3c-1.1,0-1.8,0.3-2.5,1c-0.7,0.8-1,1.5-1,2.5s0.3,1.8,1,2.4
					c0.7,0.8,1.5,1.1,2.5,1.1h16.3c1.3,0,2.2,0.8,2.2,2.1v3.3c0,1.3-0.7,2.1-1.9,2.4c-2.1,0.1-5,0.2-8.7,0.4l-6.1,0.3
					c-2.1,0.1-3.9,0.2-5.1,0.2c-1.1,0.1-2.1,0.6-2.9,1.4c-0.7,0.8-1.1,1.7-1.1,2.7c0,1.3,0.5,2.4,1.5,3.3c0.9,0.7,1.8,1.1,2.8,1.1
					h0.3c10.5-0.7,27.4-1.9,55-3.9c0.5,0,1,0.2,1.5,0.6c0.6,0.5,0.7,1.3,0.4,2c-0.4,1.5-1.1,3.2-1.8,5c-0.3,1.1-1.2,1.8-2.5,1.8
					h-32.3c-2.1,0-3.8,0.7-5.4,2.1c-1.5,1.5-2.3,3.3-2.3,5.5v19.7c0,2.1,0.8,3.9,2.3,5.4c1.6,1.5,3.3,2.3,5.4,2.3h31.1
					c1.4,0,2.4,0.9,2.4,2.2v2.7c0,1.3-0.9,2.2-2.4,2.2h-39.2c-2.2,0-4,0.7-5.4,2.2c-1.5,1.6-2.2,3.3-2.2,5.4v16.1
					c0,2,0.7,3.9,2.2,5.4c1.4,1.5,3.1,2.2,5.4,2.2c2.2,0,4-0.7,5.5-2.2c1.5-1.5,2.3-3.4,2.3-5.4v-11.2c0-1.5,0.9-2.4,2.2-2.4h29.3
					c1.4,0,2.4,0.9,2.4,2.4v13.7c0,2.2,0.7,4,2.2,5.5c1.5,1.5,3.3,2.2,5.5,2.2h0.2c2.1,0,4-0.7,5.4-2.2c1.5-1.5,2.3-3.2,2.3-5.5
					v-13.7c0-1.5,0.9-2.4,2.3-2.4h32.1c1.5,0,2.4,0.9,2.4,2.4v4.9c0,0.8-0.1,1.9-1,2.7c-0.6,0.5-1.5,0.8-2.9,1
					c-3.3-0.1-6.2-0.1-8.9-0.2c-1.1,0-2,0.5-2.6,1.5c-0.6,1-0.7,1.9-0.2,3.1c0.9,1.8,2.1,3.2,3.6,4.3c1.4,1.1,2.8,1.6,4.4,1.7
					l0.6-0.2c7,0,12.5-0.7,15.8-1.9c2.5-0.8,4.2-2,5.2-3.8c1-1.7,1.5-4.5,1.5-8.2v-9.9C770.1,707.6,769.4,705.8,767.8,704.3z
					 M675,669.3c0-1.4,0.9-2.4,2.2-2.4h67.4c1.4,0,2.4,0.9,2.4,2.4v2.3c0,1.4-0.9,2.3-2.4,2.3h-67.4c-1.4,0-2.2-0.9-2.2-2.3V669.3z
					 M677.2,687.6c-1.3,0-2.2-0.9-2.2-2.2V683c0-1.5,0.9-2.4,2.2-2.4h67.4c1.4,0,2.4,0.9,2.4,2.4v2.4c0,1.3-0.9,2.2-2.4,2.2H677.2z"
					/>
			</g>
		</g>
		<g>
			<path fill="#333333" d="M729.2,618.5h18c1.4,0,2.4,0.8,2.4,2.1v20.1c0,1.3-0.3,2.2-1,2.7c-0.5,0.5-1.3,0.7-2.5,0.7h-6.4
				c-1.1,0-1.9,0.5-2.6,1.5c-0.6,1.1-0.7,2-0.3,3.1c0.8,1.6,2,3,3.6,4.1c1.4,1.1,2.9,1.6,4.6,1.6h0.2c5.8-0.2,10.2-0.8,13.3-2
				c2.1-1,3.5-2.2,4.3-3.8c0.6-1.1,1.2-3.2,1.2-7.5v-20.5c0-1.3,0.9-2.1,2.2-2.1h6.8c1.5,0,2.7-0.5,3.8-1.6c1.1-1.1,1.6-2.3,1.6-3.9
				s-0.5-2.7-1.6-3.8c-1-1-2.3-1.5-3.8-1.5h-6.8c-1.1,0-2.2-0.6-2.2-2.4v-2.5c0-2.1-0.7-3.8-2.1-5.1c-1.4-1.4-3.1-2.1-5.1-2.1
				c-2,0-3.6,0.7-5.1,2.1c-1.4,1.3-2.1,3.1-2.1,5.1v2.5c0,1.4-0.9,2.4-2.4,2.4H718c-1.5,0-2.7,0.5-3.8,1.5c-1.1,1.1-1.6,2.3-1.6,3.8
				s0.5,2.8,1.6,3.9c1.1,1.1,2.3,1.6,3.8,1.6h8.1H729.2z M724.6,622.3c-1.7,0.9-2.7,2.2-3.2,4.1c-0.1,0.4-0.1,1-0.1,1.5
				c0,1.3,0.4,2.5,1.3,3.7c1.1,1.8,2.1,3.4,3.2,4.8c0.9,1.4,2.1,2.4,3.7,2.9c1.7,0.6,3.1,0.2,4.6-0.4c1.3-0.8,2.2-1.9,2.6-3.5
				c0.1-0.5,0.2-1,0.2-1.4c0-1-0.3-1.9-0.9-2.9c-2.3-3.3-3.1-4.5-6.1-7.8C729.9,623.2,727,620,724.6,622.3z"/>
		</g>
		<g>
			<path fill="#333333" d="M402.6,652.6h21.6c1.3,0,2.2,0.9,2.2,2.4v47c0,2.1,0.8,3.9,2.3,5.5c1.6,1.4,3.4,2.2,5.4,2.2h0.4
				c2,0,3.8-0.8,5.4-2.3c1.5-1.5,2.2-3.3,2.2-5.4v-47c0-1.5,0.9-2.4,2.2-2.4h16.1c2,0,3.7-0.7,5.1-2.1c1.5-1.5,2.1-3.1,2.1-5.2
				c0-2-0.7-3.7-2.1-5.2c-1.5-1.4-3.1-2.1-5.1-2.1h-57.3c-2.2,0-2.4-1.6-2.4-2.2v-13.1c0-0.6,0.2-2,2.2-2.4
				c19.9-2.6,37.3-6.1,51.7-10.5c1.5-0.4,2.3-1.3,2.6-2.8c0.1-0.4,0.1-0.8,0.1-1.1c0-1.1-0.4-2-1.2-2.7l-2.1-1.9
				c-1.9-1.7-4-2.8-6.4-3.3c-0.8-0.1-1.9-0.3-2.9-0.3c-1.5,0-3,0.3-4.4,0.7c-10.4,3.4-23.1,6.3-39,9c-0.8,0.3-1.9,0.2-2.8,0l-5.7-1
				c-1.9-0.6-3.6,0-5.2,1.3c-1.4,1.3-2.1,2.8-2.1,4.8v26.2c0,9.7-0.8,18.8-2.5,27.3c-1.6,8.5-4.9,16.5-9.6,23.7
				c-1,1.3-1.5,2.9-1.5,4.6c0,0.3,0,0.5,0.1,0.8c0.3,2.2,1.2,3.9,2.7,5.4l0.2,0.3c0,0.1,0.2,0.2,0.3,0.4c1.4,1.3,3.1,2,5,2.1
				c2,0,3.4-0.7,4.6-2.2c8.3-11.6,13.5-27.2,15.3-46.2C400.2,653.5,401.2,652.6,402.6,652.6z"/>
		</g>
		<g>
			<g>
				<path fill="#333333" d="M1078.9,704.3c-1.5-1.6-3.2-2.3-5.4-2.3h-42.5c-1.4,0-2.3-0.9-2.3-2.2v-2.7c0-1.3,0.9-2.2,2.3-2.2h33.8
					c2.1,0,3.9-0.8,5.5-2.3c1.5-1.5,2.2-3.3,2.2-5.4v-19.7c0-2.2-0.7-4-2.2-5.5c-1.5-1.4-3.3-2.1-5.5-2.1h-34.4
					c-0.6,0-1.1-0.3-1.5-0.9c-0.3-0.4-0.3-1.1,0-1.6c0.5-0.8,0.7-1.4,0.7-2.2c0-0.5-0.1-1.1-0.4-1.6c-0.5-1.3-1.5-2-2.9-2.3
					l-2.9-0.6c-1.2-0.2-1.9-1.1-1.9-2.4c0-1.6-0.5-2.9-1.6-4c-1.1-1-2.4-1.5-3.8-1.5h-0.5c-15.6,0.9-17.6,1.1-17.9,1.2
					c0,0,0,0-0.1,0c-1.6,0-2.5-0.8-2.5-2.1v-2.4c0-1.1,0.7-2.1,2.4-2.1h16.3c1,0,1.8-0.4,2.5-1.1c0.7-0.7,1-1.5,1-2.5
					s-0.3-1.7-1-2.5c-0.7-0.7-1.4-1-2.5-1h-16.3c-1.5,0-2.4-0.9-2.4-2.2v-2.2c0-1.4,0.9-2.4,2.4-2.4h19.4c0.9,0,1.6-0.3,2.4-1
					c0.7-0.6,1-1.3,1-2.3c0-0.9-0.3-1.8-1-2.4c-0.7-0.7-1.5-1-2.3-1h-19.4c-1.4,0-2.4-0.8-2.4-2.2V612c0-1.5,0.9-2.3,2.4-2.3h15.1
					c0.9,0,1.6-0.3,2.3-1c0.6-0.6,0.9-1.3,0.9-2.2c0-0.9-0.3-1.6-0.9-2.3c-0.6-0.6-1.3-0.9-2.3-0.9h-15.4c-1.2,0-2-0.8-2-2
					c0-1.6-0.5-2.9-1.7-4c-1.1-1.1-2.5-1.7-4.1-1.7h-3c-1.6,0-2.9,0.6-4.1,1.7c-1.2,1.1-1.8,2.4-1.8,4c0,1.4-0.9,2-1.9,2h-14.5
					c-1,0-1.8,0.3-2.4,0.9c-0.6,0.6-0.9,1.3-0.9,2.3c0,0.9,0.3,1.6,0.9,2.3c0.7,0.6,1.5,0.9,2.4,0.9h14.2c1.3,0,2.2,0.9,2.2,2.3v2.5
					c0,1.3-0.8,2.2-2.2,2.2h-19.9c-1,0-1.8,0.3-2.4,1c-0.7,0.6-1,1.5-1,2.4c0,1,0.3,1.7,1,2.3c0.7,0.7,1.5,1,2.5,1h19.9
					c1.3,0,2.2,0.9,2.2,2.4v2.2c0,1.3-0.8,2.2-2.2,2.2h-16.3c-1.1,0-1.8,0.3-2.5,1c-0.7,0.8-1,1.5-1,2.5s0.3,1.8,1,2.4
					c0.7,0.8,1.5,1.1,2.5,1.1h16.3c1.3,0,2.2,0.8,2.2,2.1v3.3c0,1.3-0.7,2.1-1.9,2.4c-2.1,0.1-5,0.2-8.7,0.4l-6.1,0.3
					c-2.1,0.1-3.9,0.2-5.1,0.2c-1.1,0.1-2.1,0.6-2.9,1.4c-0.7,0.8-1.1,1.7-1.1,2.7c0,1.3,0.5,2.4,1.5,3.3c0.9,0.7,1.8,1.1,2.8,1.1
					h0.3c10.5-0.7,27.4-1.9,55-3.9c0.5,0,1,0.2,1.5,0.6c0.6,0.5,0.7,1.3,0.4,2c-0.4,1.5-1.1,3.2-1.8,5c-0.3,1.1-1.2,1.8-2.5,1.8
					h-32.3c-2.1,0-3.8,0.7-5.4,2.1c-1.5,1.5-2.3,3.3-2.3,5.5v19.7c0,2.1,0.8,3.9,2.3,5.4c1.6,1.5,3.3,2.3,5.4,2.3h31.1
					c1.4,0,2.4,0.9,2.4,2.2v2.7c0,1.3-0.9,2.2-2.4,2.2h-39.2c-2.2,0-4,0.7-5.4,2.2c-1.5,1.6-2.2,3.3-2.2,5.4v16.1
					c0,2,0.7,3.9,2.2,5.4c1.4,1.5,3.1,2.2,5.4,2.2c2.2,0,4-0.7,5.5-2.2c1.5-1.5,2.3-3.4,2.3-5.4v-11.2c0-1.5,0.9-2.4,2.2-2.4h29.3
					c1.4,0,2.4,0.9,2.4,2.4v13.7c0,2.2,0.7,4,2.2,5.5c1.5,1.5,3.3,2.2,5.5,2.2h0.2c2.1,0,4-0.7,5.4-2.2c1.5-1.5,2.3-3.2,2.3-5.5
					v-13.7c0-1.5,0.9-2.4,2.3-2.4h32.1c1.5,0,2.4,0.9,2.4,2.4v4.9c0,0.8-0.1,1.9-1,2.7c-0.6,0.5-1.5,0.8-2.9,1
					c-3.3-0.1-6.2-0.1-8.9-0.2c-1.1,0-2,0.5-2.6,1.5c-0.6,1-0.7,1.9-0.2,3.1c0.9,1.8,2.1,3.2,3.6,4.3c1.4,1.1,2.8,1.6,4.4,1.7
					l0.6-0.2c7,0,12.5-0.7,15.8-1.9c2.6-0.8,4.2-2,5.2-3.8c1-1.7,1.5-4.5,1.5-8.2v-9.9C1081.2,707.6,1080.5,705.8,1078.9,704.3z
					 M986.1,669.3c0-1.4,0.9-2.4,2.2-2.4h67.4c1.4,0,2.4,0.9,2.4,2.4v2.3c0,1.4-0.9,2.3-2.4,2.3h-67.4c-1.4,0-2.2-0.9-2.2-2.3V669.3
					z M988.3,687.6c-1.3,0-2.2-0.9-2.2-2.2V683c0-1.5,0.9-2.4,2.2-2.4h67.4c1.4,0,2.4,0.9,2.4,2.4v2.4c0,1.3-0.9,2.2-2.4,2.2H988.3z
					"/>
			</g>
		</g>
		<g>
			<path fill="#333333" d="M1040.4,618.5h18c1.4,0,2.4,0.8,2.4,2.1v20.1c0,1.3-0.3,2.2-1,2.7c-0.5,0.5-1.3,0.7-2.5,0.7h-6.4
				c-1.1,0-1.9,0.5-2.6,1.5c-0.6,1.1-0.7,2-0.3,3.1c0.8,1.6,2,3,3.6,4.1c1.4,1.1,2.9,1.6,4.6,1.6h0.2c5.8-0.2,10.2-0.8,13.3-2
				c2.1-1,3.5-2.2,4.3-3.8c0.6-1.1,1.2-3.2,1.2-7.5v-20.5c0-1.3,0.9-2.1,2.2-2.1h6.8c1.5,0,2.7-0.5,3.8-1.6c1.1-1.1,1.6-2.3,1.6-3.9
				s-0.5-2.7-1.6-3.8c-1-1-2.3-1.5-3.8-1.5h-6.8c-1.1,0-2.2-0.6-2.2-2.4v-2.5c0-2.1-0.7-3.8-2.1-5.1c-1.4-1.4-3.1-2.1-5.1-2.1
				c-2,0-3.6,0.7-5.1,2.1c-1.4,1.3-2.1,3.1-2.1,5.1v2.5c0,1.4-0.9,2.4-2.4,2.4h-29.2c-1.5,0-2.7,0.5-3.8,1.5
				c-1.1,1.1-1.6,2.3-1.6,3.8s0.5,2.8,1.6,3.9c1.1,1.1,2.3,1.6,3.8,1.6h8.1H1040.4z M1035.7,622.3c-1.7,0.9-2.7,2.2-3.2,4.1
				c-0.1,0.4-0.1,1-0.1,1.5c0,1.3,0.4,2.5,1.3,3.7c1.1,1.8,2.1,3.4,3.2,4.8c0.9,1.4,2.1,2.4,3.7,2.9c1.7,0.6,3.1,0.2,4.6-0.4
				c1.3-0.8,2.2-1.9,2.6-3.5c0.1-0.5,0.2-1,0.2-1.4c0-1-0.3-1.9-0.9-2.9c-2.3-3.3-3.1-4.5-6.1-7.8
				C1041,623.2,1038.1,620,1035.7,622.3z"/>
		</g>
	</g>
</g>
</svg>
